<svg width="16" height="16" xmlns="http://www.w3.org/2000/svg">

 <g>
  <title>Layer 1</title>
  <path id="svg_1" d="m8.10292,2.19124c1.1,0 2.2,0.5 3,1.3c0.8,0.9 1.3,1.9 1.3,3.1s-0.5,2.5 -1.3,3.3l-3,3.1l-3,-3.1c-0.8,-0.8 -1.3,-2 -1.3,-3.3c0,-1.2 0.4,-2.2 1.3,-3.1c0.8,-0.8 1.9,-1.3 3,-1.3z" class="path1" fill="#2bf22b"/>
  <path id="svg_2" d="m8,15.8l-4.4,-4.6c-1.2,-1.2 -1.9,-2.9 -1.9,-4.7c0,-1.7 0.6,-3.2 1.8,-4.5c1.3,-1.2 2.8,-1.8 4.5,-1.8s3.2,0.7 4.4,1.9c1.2,1.2 1.8,2.8 1.8,4.5s-0.7,3.5 -1.8,4.7l-4.4,4.5zm-4,-5.1l4,4.1l3.9,-4.1c1,-1.1 1.6,-2.6 1.6,-4.2c0,-1.5 -0.6,-2.9 -1.6,-4s-2.4,-1.7 -3.9,-1.7s-2.9,0.6 -4,1.7c-1,1.1 -1.6,2.5 -1.6,4c0,1.6 0.6,3.2 1.6,4.2l0,0z" class="path2" fill="#fff"/>
  <path stroke="null" id="svg_3" d="m8,16l-5.52646,-4.7c-1.47372,-1.2 -2.33339,-3 -2.33339,-4.8c0,-1.7 0.73686,-3.3 2.33339,-4.6c1.47372,-1.2 3.43869,-1.9 5.52646,-1.9s4.05274,0.7 5.52646,1.9c1.47372,1.3 2.33339,2.9 2.33339,4.6c0,1.8 -0.85967,3.6 -2.33339,4.8l-5.52646,4.7zm0,-15.7c-1.96496,0 -3.92993,0.7 -5.28084,1.9c-1.47372,1.2 -2.21058,2.7 -2.21058,4.3c0,1.7 0.85967,3.4 2.21058,4.5l5.28084,4.5l5.28084,-4.5c1.35091,-1.2 2.21058,-2.9 2.21058,-4.5s-0.73686,-3.1 -2.21058,-4.4c-1.47372,-1.1 -3.31588,-1.8 -5.28084,-1.8zm0,14.8l-5.03522,-4.2c-1.2281,-1.2 -2.08777,-2.8 -2.08777,-4.4s0.73686,-3 2.08777,-4.1c1.35091,-1.1 3.19307,-1.7 5.03522,-1.7s3.68431,0.6 5.03522,1.7c1.35091,1.1 2.08777,2.6 2.08777,4.1c0,1.6 -0.73686,3.2 -2.08777,4.3l-5.03522,4.3zm-4.66679,-4.5l4.66679,4l4.66679,-4c1.2281,-1 1.96496,-2.6 1.96496,-4.1s-0.73686,-2.8 -1.96496,-3.9c-1.2281,-1 -2.94745,-1.6 -4.66679,-1.6s-3.43869,0.6 -4.66679,1.6c-1.2281,1.1 -1.96496,2.4 -1.96496,3.9c0,1.6 0.73686,3.1 1.96496,4.1l0,0z" class="path3" fill="#fff"/>
 </g>
</svg>