<svg width="16" height="16" xmlns="http://www.w3.org/2000/svg">

 <g>
  <title>Layer 1</title>
  <path id="svg_1" d="m8,2.1c1.1,0 2.2,0.5 3,1.3c0.8,0.9 1.3,1.9 1.3,3.1s-0.5,2.5 -1.3,3.3l-3,3.1l-3,-3.1c-0.8,-0.8 -1.3,-2 -1.3,-3.3c0,-1.2 0.4,-2.2 1.3,-3.1c0.8,-0.8 1.9,-1.3 3,-1.3z" class="path1" fill="#2bf22b"/>
  <path id="svg_2" d="m8,15.8l-4.4,-4.6c-1.2,-1.2 -1.9,-2.9 -1.9,-4.7c0,-1.7 0.6,-3.2 1.8,-4.5c1.3,-1.2 2.8,-1.8 4.5,-1.8s3.2,0.7 4.4,1.9c1.2,1.2 1.8,2.8 1.8,4.5s-0.7,3.5 -1.8,4.7l-4.4,4.5zm-4,-5.1l4,4.1l3.9,-4.1c1,-1.1 1.6,-2.6 1.6,-4.2c0,-1.5 -0.6,-2.9 -1.6,-4s-2.4,-1.7 -3.9,-1.7s-2.9,0.6 -4,1.7c-1,1.1 -1.6,2.5 -1.6,4c0,1.6 0.6,3.2 1.6,4.2l0,0z" class="path2" fill="#fff"/>
  <path id="svg_3" d="m8,16l-4.5,-4.7c-1.2,-1.2 -1.9,-3 -1.9,-4.8c0,-1.7 0.6,-3.3 1.9,-4.6c1.2,-1.2 2.8,-1.9 4.5,-1.9s3.3,0.7 4.5,1.9c1.2,1.3 1.9,2.9 1.9,4.6c0,1.8 -0.7,3.6 -1.9,4.8l-4.5,4.7zm0,-15.7c-1.6,0 -3.2,0.7 -4.3,1.9c-1.2,1.2 -1.8,2.7 -1.8,4.3c0,1.7 0.7,3.4 1.8,4.5l4.3,4.5l4.3,-4.5c1.1,-1.2 1.8,-2.9 1.8,-4.5s-0.6,-3.1 -1.8,-4.4c-1.2,-1.1 -2.7,-1.8 -4.3,-1.8zm0,14.8l-4.1,-4.2c-1,-1.2 -1.7,-2.8 -1.7,-4.4s0.6,-3 1.7,-4.1c1.1,-1.1 2.6,-1.7 4.1,-1.7s3,0.6 4.1,1.7c1.1,1.1 1.7,2.6 1.7,4.1c0,1.6 -0.6,3.2 -1.7,4.3l-4.1,4.3zm-3.8,-4.5l3.8,4l3.8,-4c1,-1 1.6,-2.6 1.6,-4.1s-0.6,-2.8 -1.6,-3.9c-1,-1 -2.4,-1.6 -3.8,-1.6s-2.8,0.6 -3.8,1.6c-1,1.1 -1.6,2.4 -1.6,3.9c0,1.6 0.6,3.1 1.6,4.1l0,0z" class="path3" fill="#fff"/>
 </g>
</svg>